<?xml version="1.0" encoding="UTF-8"?>
<svg xmlns="http://www.w3.org/2000/svg" width="192" height="144" viewBox="0 0 24 18" shape-rendering="crispEdges">
  <title>Dino · Spiked Tail</title>
  <g id="body" data-part="body"><rect x="1" y="2" width="1" height="1" fill="#e8e0c8"/><rect x="0" y="3" width="2" height="1" fill="#1a1a1a"/><rect x="2" y="3" width="1" height="1" fill="#e8e0c8"/><rect x="0" y="4" width="1" height="1" fill="#1a1a1a"/><rect x="1" y="4" width="1" height="1" fill="#6a8a3a"/><rect x="2" y="4" width="1" height="1" fill="#1a1a1a"/><rect x="3" y="4" width="1" height="1" fill="#e8e0c8"/><rect x="1" y="5" width="1" height="1" fill="#1a1a1a"/><rect x="2" y="5" width="2" height="1" fill="#6a8a3a"/><rect x="4" y="5" width="1" height="1" fill="#1a1a1a"/><rect x="6" y="5" width="7" height="1" fill="#1a1a1a"/><rect x="2" y="6" width="1" height="1" fill="#1a1a1a"/><rect x="3" y="6" width="2" height="1" fill="#6a8a3a"/><rect x="5" y="6" width="2" height="1" fill="#1a1a1a"/><rect x="7" y="6" width="1" height="1" fill="#6a8a3a"/><rect x="8" y="6" width="4" height="1" fill="#8aaa52"/><rect x="12" y="6" width="1" height="1" fill="#6a8a3a"/><rect x="13" y="6" width="1" height="1" fill="#1a1a1a"/><rect x="3" y="7" width="1" height="1" fill="#1a1a1a"/><rect x="4" y="7" width="4" height="1" fill="#6a8a3a"/><rect x="8" y="7" width="5" height="1" fill="#8aaa52"/><rect x="13" y="7" width="1" height="1" fill="#1a1a1a"/><rect x="2" y="8" width="1" height="1" fill="#1a1a1a"/><rect x="3" y="8" width="10" height="1" fill="#6a8a3a"/><rect x="13" y="8" width="1" height="1" fill="#1a1a1a"/><rect x="1" y="9" width="1" height="1" fill="#1a1a1a"/><rect x="2" y="9" width="11" height="1" fill="#6a8a3a"/><rect x="13" y="9" width="1" height="1" fill="#1a1a1a"/><rect x="1" y="10" width="1" height="1" fill="#1a1a1a"/><rect x="2" y="10" width="1" height="1" fill="#6a8a3a"/><rect x="3" y="10" width="1" height="1" fill="#465e22"/><rect x="4" y="10" width="7" height="1" fill="#6a8a3a"/><rect x="11" y="10" width="1" height="1" fill="#465e22"/><rect x="12" y="10" width="1" height="1" fill="#6a8a3a"/><rect x="13" y="10" width="1" height="1" fill="#1a1a1a"/><rect x="2" y="11" width="1" height="1" fill="#1a1a1a"/><rect x="3" y="11" width="1" height="1" fill="#6a8a3a"/><rect x="4" y="11" width="7" height="1" fill="#465e22"/><rect x="11" y="11" width="1" height="1" fill="#6a8a3a"/><rect x="12" y="11" width="1" height="1" fill="#1a1a1a"/><rect x="3" y="12" width="9" height="1" fill="#1a1a1a"/></g>
</svg>