<?xml version="1.0" encoding="UTF-8"?>
<svg xmlns="http://www.w3.org/2000/svg" width="192" height="144" viewBox="0 0 24 18" shape-rendering="crispEdges">
  <title>Skull · Coffin</title>
  <g id="body" data-part="body"><rect x="3" y="5" width="8" height="1" fill="#1a1a1a"/><rect x="2" y="6" width="1" height="1" fill="#1a1a1a"/><rect x="3" y="6" width="1" height="1" fill="#645078"/><rect x="4" y="6" width="6" height="1" fill="#4a3a5a"/><rect x="10" y="6" width="1" height="1" fill="#645078"/><rect x="11" y="6" width="1" height="1" fill="#1a1a1a"/><rect x="1" y="7" width="1" height="1" fill="#1a1a1a"/><rect x="2" y="7" width="1" height="1" fill="#645078"/><rect x="3" y="7" width="4" height="1" fill="#4a3a5a"/><rect x="7" y="7" width="1" height="1" fill="#c8a838"/><rect x="8" y="7" width="3" height="1" fill="#4a3a5a"/><rect x="11" y="7" width="1" height="1" fill="#645078"/><rect x="12" y="7" width="1" height="1" fill="#1a1a1a"/><rect x="0" y="8" width="1" height="1" fill="#1a1a1a"/><rect x="1" y="8" width="1" height="1" fill="#645078"/><rect x="2" y="8" width="4" height="1" fill="#4a3a5a"/><rect x="6" y="8" width="3" height="1" fill="#c8a838"/><rect x="9" y="8" width="3" height="1" fill="#4a3a5a"/><rect x="12" y="8" width="1" height="1" fill="#645078"/><rect x="13" y="8" width="1" height="1" fill="#1a1a1a"/><rect x="0" y="9" width="1" height="1" fill="#1a1a1a"/><rect x="1" y="9" width="1" height="1" fill="#645078"/><rect x="2" y="9" width="5" height="1" fill="#4a3a5a"/><rect x="7" y="9" width="1" height="1" fill="#c8a838"/><rect x="8" y="9" width="4" height="1" fill="#4a3a5a"/><rect x="12" y="9" width="1" height="1" fill="#645078"/><rect x="13" y="9" width="1" height="1" fill="#1a1a1a"/><rect x="1" y="10" width="1" height="1" fill="#1a1a1a"/><rect x="2" y="10" width="1" height="1" fill="#645078"/><rect x="3" y="10" width="8" height="1" fill="#4a3a5a"/><rect x="11" y="10" width="1" height="1" fill="#645078"/><rect x="12" y="10" width="1" height="1" fill="#1a1a1a"/><rect x="2" y="11" width="1" height="1" fill="#1a1a1a"/><rect x="3" y="11" width="1" height="1" fill="#645078"/><rect x="4" y="11" width="6" height="1" fill="#4a3a5a"/><rect x="10" y="11" width="1" height="1" fill="#645078"/><rect x="11" y="11" width="1" height="1" fill="#1a1a1a"/><rect x="3" y="12" width="8" height="1" fill="#1a1a1a"/></g>
</svg>