<?xml version="1.0" encoding="UTF-8"?>
<svg xmlns="http://www.w3.org/2000/svg" width="192" height="144" viewBox="0 0 24 18" shape-rendering="crispEdges">
  <title>Loaded Boxes</title>
  <g id="body" data-part="body"><rect x="0" y="9" width="1" height="1" fill="#e84c4c"/><rect x="1" y="9" width="13" height="1" fill="#1a1a1a"/><rect x="1" y="14" width="13" height="1" fill="#1a1a1a"/><rect x="0" y="10" width="1" height="1" fill="#e84c4c"/><rect x="1" y="10" width="1" height="1" fill="#1a1a1a"/><rect x="2" y="10" width="11" height="1" fill="#8a5a30"/><rect x="13" y="10" width="1" height="1" fill="#1a1a1a"/><rect x="0" y="11" width="2" height="1" fill="#1a1a1a"/><rect x="2" y="11" width="11" height="1" fill="#8a5a30"/><rect x="13" y="11" width="1" height="1" fill="#1a1a1a"/><rect x="1" y="12" width="1" height="1" fill="#1a1a1a"/><rect x="2" y="12" width="11" height="1" fill="#8a5a30"/><rect x="13" y="12" width="1" height="1" fill="#1a1a1a"/><rect x="1" y="13" width="1" height="1" fill="#1a1a1a"/><rect x="2" y="13" width="11" height="1" fill="#8a5a30"/><rect x="13" y="13" width="1" height="1" fill="#1a1a1a"/><rect x="1" y="4" width="6" height="1" fill="#1a1a1a"/><rect x="11" y="4" width="3" height="1" fill="#1a1a1a"/><rect x="1" y="5" width="2" height="1" fill="#1a1a1a"/><rect x="3" y="5" width="1" height="1" fill="#a87a4a"/><rect x="4" y="5" width="8" height="1" fill="#1a1a1a"/><rect x="12" y="5" width="1" height="1" fill="#a87a4a"/><rect x="13" y="5" width="1" height="1" fill="#1a1a1a"/><rect x="1" y="6" width="2" height="1" fill="#1a1a1a"/><rect x="3" y="6" width="3" height="1" fill="#a87a4a"/><rect x="6" y="6" width="2" height="1" fill="#1a1a1a"/><rect x="8" y="6" width="2" height="1" fill="#a87a4a"/><rect x="10" y="6" width="2" height="1" fill="#1a1a1a"/><rect x="12" y="6" width="1" height="1" fill="#a87a4a"/><rect x="13" y="6" width="1" height="1" fill="#1a1a1a"/><rect x="1" y="7" width="2" height="1" fill="#1a1a1a"/><rect x="3" y="7" width="3" height="1" fill="#a87a4a"/><rect x="6" y="7" width="2" height="1" fill="#1a1a1a"/><rect x="8" y="7" width="2" height="1" fill="#a87a4a"/><rect x="10" y="7" width="2" height="1" fill="#1a1a1a"/><rect x="12" y="7" width="1" height="1" fill="#a87a4a"/><rect x="13" y="7" width="1" height="1" fill="#1a1a1a"/><rect x="0" y="8" width="14" height="1" fill="#1a1a1a"/></g>
</svg>