<?xml version="1.0" encoding="UTF-8"?>
<svg xmlns="http://www.w3.org/2000/svg" width="192" height="144" viewBox="0 0 24 18" shape-rendering="crispEdges">
  <title>Turret · Heavy</title>
  <g id="body" data-part="body"><rect x="1" y="11" width="13" height="1" fill="#1a1a1a"/><rect x="1" y="14" width="13" height="1" fill="#1a1a1a"/><rect x="1" y="12" width="1" height="1" fill="#1a1a1a"/><rect x="2" y="12" width="11" height="1" fill="#7a828a"/><rect x="13" y="12" width="1" height="1" fill="#1a1a1a"/><rect x="1" y="13" width="1" height="1" fill="#1a1a1a"/><rect x="2" y="13" width="11" height="1" fill="#5a626a"/><rect x="13" y="13" width="1" height="1" fill="#1a1a1a"/><rect x="4" y="4" width="1" height="1" fill="#1a1a1a"/><rect x="5" y="4" width="2" height="1" fill="#9aa2aa"/><rect x="7" y="4" width="3" height="1" fill="#1a1a1a"/><rect x="10" y="4" width="1" height="1" fill="#9aa2aa"/><rect x="3" y="5" width="1" height="1" fill="#1a1a1a"/><rect x="4" y="5" width="6" height="1" fill="#5a626a"/><rect x="10" y="5" width="1" height="1" fill="#1a1a1a"/><rect x="2" y="6" width="1" height="1" fill="#1a1a1a"/><rect x="3" y="6" width="8" height="1" fill="#7a828a"/><rect x="11" y="6" width="1" height="1" fill="#1a1a1a"/><rect x="2" y="7" width="1" height="1" fill="#1a1a1a"/><rect x="3" y="7" width="5" height="1" fill="#5a626a"/><rect x="8" y="7" width="1" height="1" fill="#3a424a"/><rect x="9" y="7" width="3" height="1" fill="#5a626a"/><rect x="12" y="7" width="1" height="1" fill="#1a1a1a"/><rect x="2" y="8" width="1" height="1" fill="#1a1a1a"/><rect x="3" y="8" width="5" height="1" fill="#5a626a"/><rect x="8" y="8" width="1" height="1" fill="#3a424a"/><rect x="9" y="8" width="3" height="1" fill="#5a626a"/><rect x="12" y="8" width="1" height="1" fill="#1a1a1a"/><rect x="2" y="9" width="1" height="1" fill="#1a1a1a"/><rect x="3" y="9" width="5" height="1" fill="#5a626a"/><rect x="8" y="9" width="1" height="1" fill="#3a424a"/><rect x="9" y="9" width="3" height="1" fill="#5a626a"/><rect x="12" y="9" width="1" height="1" fill="#1a1a1a"/><rect x="2" y="10" width="1" height="1" fill="#1a1a1a"/><rect x="3" y="10" width="9" height="1" fill="#3a424a"/><rect x="12" y="10" width="1" height="1" fill="#1a1a1a"/><rect x="10" y="1" width="1" height="1" fill="#2a2a2a"/><rect x="10" y="2" width="1" height="1" fill="#2a2a2a"/><rect x="10" y="3" width="1" height="1" fill="#2a2a2a"/></g>
</svg>