<?xml version="1.0" encoding="UTF-8"?>
<svg xmlns="http://www.w3.org/2000/svg" width="192" height="144" viewBox="0 0 24 18" shape-rendering="crispEdges">
  <title>Arm · Concrete Pump</title>
  <g id="cab" data-part="cab"><rect x="14" y="8" width="4" height="1" fill="#1a1a1a"/><rect x="22" y="8" width="1" height="1" fill="#c0392b"/><rect x="14" y="13" width="4" height="1" fill="#1a1a1a"/><rect x="14" y="9" width="1" height="1" fill="#1a1a1a"/><rect x="15" y="9" width="2" height="1" fill="#bce6f0"/><rect x="17" y="9" width="1" height="1" fill="#1a1a1a"/><rect x="22" y="9" width="1" height="1" fill="#c0392b"/><rect x="14" y="10" width="1" height="1" fill="#1a1a1a"/><rect x="15" y="10" width="2" height="1" fill="#cfd6da"/><rect x="17" y="10" width="1" height="1" fill="#1a1a1a"/><rect x="22" y="10" width="1" height="1" fill="#888"/><rect x="14" y="11" width="1" height="1" fill="#1a1a1a"/><rect x="15" y="11" width="2" height="1" fill="#cfd6da"/><rect x="17" y="11" width="1" height="1" fill="#1a1a1a"/><rect x="22" y="11" width="1" height="1" fill="#888"/><rect x="14" y="12" width="1" height="1" fill="#1a1a1a"/><rect x="15" y="12" width="2" height="1" fill="#cfd6da"/><rect x="17" y="12" width="1" height="1" fill="#1a1a1a"/><rect x="16" y="7" width="1" height="1" fill="#7a2018"/><rect x="17" y="7" width="1" height="1" fill="#c0392b"/><rect x="22" y="7" width="1" height="1" fill="#c0392b"/><rect x="18" y="6" width="1" height="1" fill="#c0392b"/><rect x="21" y="6" width="1" height="1" fill="#c0392b"/><rect x="19" y="5" width="2" height="1" fill="#c0392b"/></g>
</svg>