<?xml version="1.0" encoding="UTF-8"?>
<svg xmlns="http://www.w3.org/2000/svg" width="192" height="144" viewBox="0 0 24 18" shape-rendering="crispEdges">
  <title>Train · Caboose</title>
  <g id="body" data-part="body"><rect x="1" y="6" width="13" height="1" fill="#1a1a1a"/><rect x="1" y="14" width="13" height="1" fill="#1a1a1a"/><rect x="1" y="7" width="1" height="1" fill="#1a1a1a"/><rect x="2" y="7" width="11" height="1" fill="#e05a48"/><rect x="13" y="7" width="1" height="1" fill="#1a1a1a"/><rect x="0" y="8" width="2" height="1" fill="#1a1a1a"/><rect x="2" y="8" width="11" height="1" fill="#c0392b"/><rect x="13" y="8" width="1" height="1" fill="#1a1a1a"/><rect x="0" y="9" width="1" height="1" fill="#e84c4c"/><rect x="1" y="9" width="1" height="1" fill="#1a1a1a"/><rect x="2" y="9" width="1" height="1" fill="#c0392b"/><rect x="3" y="9" width="2" height="1" fill="#1a1a1a"/><rect x="5" y="9" width="5" height="1" fill="#c0392b"/><rect x="10" y="9" width="2" height="1" fill="#1a1a1a"/><rect x="12" y="9" width="1" height="1" fill="#c0392b"/><rect x="13" y="9" width="1" height="1" fill="#1a1a1a"/><rect x="0" y="10" width="1" height="1" fill="#e84c4c"/><rect x="1" y="10" width="1" height="1" fill="#1a1a1a"/><rect x="2" y="10" width="1" height="1" fill="#c0392b"/><rect x="3" y="10" width="1" height="1" fill="#cfe8f4"/><rect x="4" y="10" width="1" height="1" fill="#1a1a1a"/><rect x="5" y="10" width="5" height="1" fill="#c0392b"/><rect x="10" y="10" width="1" height="1" fill="#cfe8f4"/><rect x="11" y="10" width="1" height="1" fill="#1a1a1a"/><rect x="12" y="10" width="1" height="1" fill="#c0392b"/><rect x="13" y="10" width="1" height="1" fill="#1a1a1a"/><rect x="0" y="11" width="2" height="1" fill="#1a1a1a"/><rect x="2" y="11" width="1" height="1" fill="#c0392b"/><rect x="3" y="11" width="2" height="1" fill="#1a1a1a"/><rect x="5" y="11" width="5" height="1" fill="#c0392b"/><rect x="10" y="11" width="2" height="1" fill="#1a1a1a"/><rect x="12" y="11" width="1" height="1" fill="#c0392b"/><rect x="13" y="11" width="1" height="1" fill="#1a1a1a"/><rect x="1" y="12" width="1" height="1" fill="#1a1a1a"/><rect x="2" y="12" width="11" height="1" fill="#f4d166"/><rect x="13" y="12" width="1" height="1" fill="#1a1a1a"/><rect x="1" y="13" width="1" height="1" fill="#1a1a1a"/><rect x="2" y="13" width="11" height="1" fill="#7a2018"/><rect x="13" y="13" width="1" height="1" fill="#1a1a1a"/><rect x="5" y="3" width="5" height="1" fill="#1a1a1a"/><rect x="5" y="4" width="1" height="1" fill="#1a1a1a"/><rect x="6" y="4" width="3" height="1" fill="#cfe8f4"/><rect x="9" y="4" width="1" height="1" fill="#1a1a1a"/><rect x="5" y="5" width="1" height="1" fill="#1a1a1a"/><rect x="6" y="5" width="3" height="1" fill="#c0392b"/><rect x="9" y="5" width="1" height="1" fill="#1a1a1a"/></g>
</svg>