<?xml version="1.0" encoding="UTF-8"?>
<svg xmlns="http://www.w3.org/2000/svg" width="192" height="144" viewBox="0 0 24 18" shape-rendering="crispEdges">
  <title>Gun · Standard</title>
  <g id="cab" data-part="cab"><rect x="14" y="7" width="5" height="1" fill="#1a1a1a"/><rect x="22" y="7" width="1" height="1" fill="#1a1a1a"/><rect x="14" y="12" width="5" height="1" fill="#1a1a1a"/><rect x="22" y="12" width="1" height="1" fill="#1a1a1a"/><rect x="14" y="8" width="1" height="1" fill="#1a1a1a"/><rect x="15" y="8" width="3" height="1" fill="#7a8c52"/><rect x="18" y="8" width="4" height="1" fill="#1a1a1a"/><rect x="22" y="8" width="1" height="1" fill="#5a5a5a"/><rect x="23" y="8" width="1" height="1" fill="#1a1a1a"/><rect x="14" y="9" width="1" height="1" fill="#1a1a1a"/><rect x="15" y="9" width="3" height="1" fill="#5a6b3a"/><rect x="18" y="9" width="5" height="1" fill="#5a5a5a"/><rect x="23" y="9" width="1" height="1" fill="#1a1a1a"/><rect x="14" y="10" width="1" height="1" fill="#1a1a1a"/><rect x="15" y="10" width="3" height="1" fill="#5a6b3a"/><rect x="18" y="10" width="5" height="1" fill="#3a3a3a"/><rect x="23" y="10" width="1" height="1" fill="#1a1a1a"/><rect x="14" y="11" width="1" height="1" fill="#1a1a1a"/><rect x="15" y="11" width="3" height="1" fill="#3a4724"/><rect x="18" y="11" width="4" height="1" fill="#1a1a1a"/><rect x="22" y="11" width="1" height="1" fill="#5a5a5a"/><rect x="23" y="11" width="1" height="1" fill="#1a1a1a"/></g>
</svg>