<?xml version="1.0" encoding="UTF-8"?>
<svg xmlns="http://www.w3.org/2000/svg" width="192" height="144" viewBox="0 0 24 18" shape-rendering="crispEdges">
  <title>Const · Crane Carrier</title>
  <g id="wheels" data-part="wheels"><rect x="0" y="16" width="1" height="1" fill="#f4c430"/><rect x="3" y="16" width="3" height="1" fill="#1a1a1a"/><rect x="7" y="16" width="3" height="1" fill="#1a1a1a"/><rect x="11" y="16" width="3" height="1" fill="#1a1a1a"/><rect x="15" y="16" width="3" height="1" fill="#1a1a1a"/><rect x="23" y="16" width="1" height="1" fill="#f4c430"/><rect x="0" y="17" width="1" height="1" fill="#1a1a1a"/><rect x="23" y="17" width="1" height="1" fill="#1a1a1a"/><rect x="1" y="15" width="1" height="1" fill="#bcbcbc"/><rect x="3" y="15" width="1" height="1" fill="#1a1a1a"/><rect x="4" y="15" width="1" height="1" fill="#bcbcbc"/><rect x="5" y="15" width="1" height="1" fill="#1a1a1a"/><rect x="7" y="15" width="1" height="1" fill="#1a1a1a"/><rect x="8" y="15" width="1" height="1" fill="#bcbcbc"/><rect x="9" y="15" width="1" height="1" fill="#1a1a1a"/><rect x="11" y="15" width="1" height="1" fill="#1a1a1a"/><rect x="12" y="15" width="1" height="1" fill="#bcbcbc"/><rect x="13" y="15" width="1" height="1" fill="#1a1a1a"/><rect x="15" y="15" width="1" height="1" fill="#1a1a1a"/><rect x="16" y="15" width="1" height="1" fill="#bcbcbc"/><rect x="17" y="15" width="1" height="1" fill="#1a1a1a"/><rect x="22" y="15" width="1" height="1" fill="#bcbcbc"/><rect x="3" y="14" width="3" height="1" fill="#1a1a1a"/><rect x="7" y="14" width="3" height="1" fill="#1a1a1a"/><rect x="11" y="14" width="3" height="1" fill="#1a1a1a"/><rect x="15" y="14" width="3" height="1" fill="#1a1a1a"/></g>
</svg>