<?xml version="1.0" encoding="UTF-8"?>
<svg xmlns="http://www.w3.org/2000/svg" width="192" height="144" viewBox="0 0 24 18" shape-rendering="crispEdges">
  <title>Skull · Ghost</title>
  <g id="cab" data-part="cab"><rect x="14" y="5" width="9" height="1" fill="#1a1a1a"/><rect x="14" y="12" width="9" height="1" fill="#1a1a1a"/><rect x="14" y="6" width="1" height="1" fill="#1a1a1a"/><rect x="15" y="6" width="7" height="1" fill="#eef6fa"/><rect x="22" y="6" width="1" height="1" fill="#1a1a1a"/><rect x="23" y="6" width="1" height="1" fill="#5fb3d9"/><rect x="14" y="7" width="1" height="1" fill="#1a1a1a"/><rect x="15" y="7" width="7" height="1" fill="#cfe0e8"/><rect x="22" y="7" width="1" height="1" fill="#1a1a1a"/><rect x="14" y="8" width="1" height="1" fill="#1a1a1a"/><rect x="15" y="8" width="2" height="1" fill="#cfe0e8"/><rect x="17" y="8" width="1" height="1" fill="#1a1a1a"/><rect x="18" y="8" width="2" height="1" fill="#cfe0e8"/><rect x="20" y="8" width="1" height="1" fill="#1a1a1a"/><rect x="21" y="8" width="1" height="1" fill="#cfe0e8"/><rect x="22" y="8" width="1" height="1" fill="#1a1a1a"/><rect x="14" y="9" width="1" height="1" fill="#1a1a1a"/><rect x="15" y="9" width="7" height="1" fill="#cfe0e8"/><rect x="22" y="9" width="1" height="1" fill="#1a1a1a"/><rect x="14" y="10" width="1" height="1" fill="#1a1a1a"/><rect x="15" y="10" width="3" height="1" fill="#cfe0e8"/><rect x="18" y="10" width="2" height="1" fill="#1a1a1a"/><rect x="20" y="10" width="2" height="1" fill="#cfe0e8"/><rect x="22" y="10" width="1" height="1" fill="#1a1a1a"/><rect x="14" y="11" width="1" height="1" fill="#1a1a1a"/><rect x="15" y="11" width="7" height="1" fill="#cfe0e8"/><rect x="22" y="11" width="1" height="1" fill="#1a1a1a"/><rect x="15" y="13" width="1" height="1" fill="#cfe0e8"/><rect x="16" y="13" width="1" height="1" fill="#1a1a1a"/><rect x="17" y="13" width="1" height="1" fill="#cfe0e8"/><rect x="18" y="13" width="1" height="1" fill="#1a1a1a"/><rect x="19" y="13" width="1" height="1" fill="#cfe0e8"/><rect x="20" y="13" width="1" height="1" fill="#1a1a1a"/><rect x="21" y="13" width="1" height="1" fill="#cfe0e8"/><rect x="15" y="14" width="1" height="1" fill="#9ab4c0"/><rect x="17" y="14" width="1" height="1" fill="#9ab4c0"/><rect x="19" y="14" width="1" height="1" fill="#9ab4c0"/><rect x="21" y="14" width="1" height="1" fill="#9ab4c0"/><rect x="22" y="4" width="1" height="1" fill="#5fb3d9"/></g>
</svg>