<?xml version="1.0" encoding="UTF-8"?>
<svg xmlns="http://www.w3.org/2000/svg" width="192" height="144" viewBox="0 0 24 18" shape-rendering="crispEdges">
  <title>Container</title>
  <g id="body" data-part="body"><rect x="1" y="3" width="13" height="1" fill="#1a1a1a"/><rect x="1" y="14" width="13" height="1" fill="#1a1a1a"/><rect x="1" y="4" width="1" height="1" fill="#1a1a1a"/><rect x="2" y="4" width="1" height="1" fill="#6aa6d6"/><rect x="3" y="4" width="1" height="1" fill="#1f4d7a"/><rect x="4" y="4" width="1" height="1" fill="#6aa6d6"/><rect x="5" y="4" width="1" height="1" fill="#1f4d7a"/><rect x="6" y="4" width="1" height="1" fill="#6aa6d6"/><rect x="7" y="4" width="1" height="1" fill="#1f4d7a"/><rect x="8" y="4" width="6" height="1" fill="#1a1a1a"/><rect x="1" y="5" width="1" height="1" fill="#1a1a1a"/><rect x="2" y="5" width="1" height="1" fill="#6aa6d6"/><rect x="3" y="5" width="1" height="1" fill="#1f4d7a"/><rect x="4" y="5" width="1" height="1" fill="#6aa6d6"/><rect x="5" y="5" width="1" height="1" fill="#1f4d7a"/><rect x="6" y="5" width="1" height="1" fill="#6aa6d6"/><rect x="7" y="5" width="1" height="1" fill="#1f4d7a"/><rect x="8" y="5" width="1" height="1" fill="#1a1a1a"/><rect x="9" y="5" width="4" height="1" fill="#3a7db8"/><rect x="13" y="5" width="1" height="1" fill="#1a1a1a"/><rect x="1" y="6" width="1" height="1" fill="#1a1a1a"/><rect x="2" y="6" width="1" height="1" fill="#6aa6d6"/><rect x="3" y="6" width="1" height="1" fill="#1f4d7a"/><rect x="4" y="6" width="1" height="1" fill="#6aa6d6"/><rect x="5" y="6" width="1" height="1" fill="#1f4d7a"/><rect x="6" y="6" width="1" height="1" fill="#6aa6d6"/><rect x="7" y="6" width="1" height="1" fill="#1f4d7a"/><rect x="8" y="6" width="1" height="1" fill="#1a1a1a"/><rect x="9" y="6" width="4" height="1" fill="#3a7db8"/><rect x="13" y="6" width="1" height="1" fill="#1a1a1a"/><rect x="1" y="7" width="1" height="1" fill="#1a1a1a"/><rect x="2" y="7" width="1" height="1" fill="#6aa6d6"/><rect x="3" y="7" width="1" height="1" fill="#1f4d7a"/><rect x="4" y="7" width="1" height="1" fill="#6aa6d6"/><rect x="5" y="7" width="1" height="1" fill="#1f4d7a"/><rect x="6" y="7" width="1" height="1" fill="#6aa6d6"/><rect x="7" y="7" width="1" height="1" fill="#1f4d7a"/><rect x="8" y="7" width="1" height="1" fill="#1a1a1a"/><rect x="9" y="7" width="4" height="1" fill="#3a7db8"/><rect x="13" y="7" width="1" height="1" fill="#1a1a1a"/><rect x="0" y="8" width="2" height="1" fill="#1a1a1a"/><rect x="2" y="8" width="1" height="1" fill="#6aa6d6"/><rect x="3" y="8" width="1" height="1" fill="#1f4d7a"/><rect x="4" y="8" width="1" height="1" fill="#6aa6d6"/><rect x="5" y="8" width="1" height="1" fill="#1f4d7a"/><rect x="6" y="8" width="1" height="1" fill="#6aa6d6"/><rect x="7" y="8" width="1" height="1" fill="#1f4d7a"/><rect x="8" y="8" width="1" height="1" fill="#1a1a1a"/><rect x="9" y="8" width="4" height="1" fill="#3a7db8"/><rect x="13" y="8" width="1" height="1" fill="#1a1a1a"/><rect x="0" y="9" width="1" height="1" fill="#e84c4c"/><rect x="1" y="9" width="1" height="1" fill="#1a1a1a"/><rect x="2" y="9" width="1" height="1" fill="#6aa6d6"/><rect x="3" y="9" width="1" height="1" fill="#1f4d7a"/><rect x="4" y="9" width="1" height="1" fill="#6aa6d6"/><rect x="5" y="9" width="1" height="1" fill="#1f4d7a"/><rect x="6" y="9" width="1" height="1" fill="#6aa6d6"/><rect x="7" y="9" width="1" height="1" fill="#1f4d7a"/><rect x="8" y="9" width="1" height="1" fill="#1a1a1a"/><rect x="9" y="9" width="1" height="1" fill="#3a7db8"/><rect x="10" y="9" width="1" height="1" fill="#1a1a1a"/><rect x="11" y="9" width="1" height="1" fill="#3a7db8"/><rect x="12" y="9" width="2" height="1" fill="#1a1a1a"/><rect x="0" y="10" width="1" height="1" fill="#e84c4c"/><rect x="1" y="10" width="1" height="1" fill="#1a1a1a"/><rect x="2" y="10" width="1" height="1" fill="#6aa6d6"/><rect x="3" y="10" width="1" height="1" fill="#1f4d7a"/><rect x="4" y="10" width="1" height="1" fill="#6aa6d6"/><rect x="5" y="10" width="1" height="1" fill="#1f4d7a"/><rect x="6" y="10" width="1" height="1" fill="#6aa6d6"/><rect x="7" y="10" width="1" height="1" fill="#1f4d7a"/><rect x="8" y="10" width="1" height="1" fill="#1a1a1a"/><rect x="9" y="10" width="4" height="1" fill="#3a7db8"/><rect x="13" y="10" width="1" height="1" fill="#1a1a1a"/><rect x="0" y="11" width="2" height="1" fill="#1a1a1a"/><rect x="2" y="11" width="5" height="1" fill="#bcbcbc"/><rect x="7" y="11" width="1" height="1" fill="#1f4d7a"/><rect x="8" y="11" width="1" height="1" fill="#1a1a1a"/><rect x="9" y="11" width="4" height="1" fill="#3a7db8"/><rect x="13" y="11" width="1" height="1" fill="#1a1a1a"/><rect x="1" y="12" width="1" height="1" fill="#1a1a1a"/><rect x="2" y="12" width="5" height="1" fill="#bcbcbc"/><rect x="7" y="12" width="1" height="1" fill="#1f4d7a"/><rect x="8" y="12" width="1" height="1" fill="#1a1a1a"/><rect x="9" y="12" width="4" height="1" fill="#3a7db8"/><rect x="13" y="12" width="1" height="1" fill="#1a1a1a"/><rect x="1" y="13" width="1" height="1" fill="#1a1a1a"/><rect x="2" y="13" width="1" height="1" fill="#6aa6d6"/><rect x="3" y="13" width="1" height="1" fill="#1f4d7a"/><rect x="4" y="13" width="1" height="1" fill="#6aa6d6"/><rect x="5" y="13" width="1" height="1" fill="#1f4d7a"/><rect x="6" y="13" width="1" height="1" fill="#6aa6d6"/><rect x="7" y="13" width="1" height="1" fill="#1f4d7a"/><rect x="8" y="13" width="6" height="1" fill="#1a1a1a"/></g>
</svg>