<?xml version="1.0" encoding="UTF-8"?>
<svg xmlns="http://www.w3.org/2000/svg" width="192" height="144" viewBox="0 0 24 18" shape-rendering="crispEdges">
  <title>Track · Steel</title>
  <g id="wheels" data-part="wheels"><rect x="1" y="14" width="21" height="1" fill="#1a1a1a"/><rect x="1" y="17" width="21" height="1" fill="#1a1a1a"/><rect x="1" y="15" width="1" height="1" fill="#1a1a1a"/><rect x="2" y="15" width="3" height="1" fill="#8a8a8a"/><rect x="5" y="15" width="3" height="1" fill="#6a6a6a"/><rect x="8" y="15" width="1" height="1" fill="#8a8a8a"/><rect x="9" y="15" width="3" height="1" fill="#6a6a6a"/><rect x="12" y="15" width="1" height="1" fill="#8a8a8a"/><rect x="13" y="15" width="3" height="1" fill="#6a6a6a"/><rect x="16" y="15" width="1" height="1" fill="#8a8a8a"/><rect x="17" y="15" width="2" height="1" fill="#6a6a6a"/><rect x="19" y="15" width="2" height="1" fill="#8a8a8a"/><rect x="21" y="15" width="1" height="1" fill="#1a1a1a"/><rect x="1" y="16" width="1" height="1" fill="#1a1a1a"/><rect x="2" y="16" width="3" height="1" fill="#8a8a8a"/><rect x="5" y="16" width="1" height="1" fill="#4a4a4a"/><rect x="6" y="16" width="1" height="1" fill="#2a2a2a"/><rect x="7" y="16" width="1" height="1" fill="#4a4a4a"/><rect x="8" y="16" width="1" height="1" fill="#8a8a8a"/><rect x="9" y="16" width="1" height="1" fill="#4a4a4a"/><rect x="10" y="16" width="1" height="1" fill="#2a2a2a"/><rect x="11" y="16" width="1" height="1" fill="#4a4a4a"/><rect x="12" y="16" width="1" height="1" fill="#8a8a8a"/><rect x="13" y="16" width="1" height="1" fill="#4a4a4a"/><rect x="14" y="16" width="1" height="1" fill="#2a2a2a"/><rect x="15" y="16" width="1" height="1" fill="#4a4a4a"/><rect x="16" y="16" width="1" height="1" fill="#8a8a8a"/><rect x="17" y="16" width="1" height="1" fill="#4a4a4a"/><rect x="18" y="16" width="1" height="1" fill="#2a2a2a"/><rect x="19" y="16" width="2" height="1" fill="#8a8a8a"/><rect x="21" y="16" width="1" height="1" fill="#1a1a1a"/></g>
</svg>