<?xml version="1.0" encoding="UTF-8"?>
<svg xmlns="http://www.w3.org/2000/svg" width="192" height="144" viewBox="0 0 24 18" shape-rendering="crispEdges">
  <title>Roller Frame</title>
  <g id="body" data-part="body"><rect x="2" y="5" width="1" height="1" fill="#1a1a1a"/><rect x="3" y="5" width="1" height="1" fill="#3a3a3a"/><rect x="4" y="5" width="7" height="1" fill="#1a1a1a"/><rect x="11" y="5" width="1" height="1" fill="#3a3a3a"/><rect x="12" y="5" width="1" height="1" fill="#1a1a1a"/><rect x="2" y="13" width="11" height="1" fill="#1a1a1a"/><rect x="2" y="6" width="1" height="1" fill="#1a1a1a"/><rect x="3" y="6" width="9" height="1" fill="#ffb066"/><rect x="12" y="6" width="1" height="1" fill="#1a1a1a"/><rect x="2" y="7" width="1" height="1" fill="#1a1a1a"/><rect x="3" y="7" width="3" height="1" fill="#e8843a"/><rect x="6" y="7" width="3" height="1" fill="#3a3a3a"/><rect x="9" y="7" width="3" height="1" fill="#e8843a"/><rect x="12" y="7" width="1" height="1" fill="#1a1a1a"/><rect x="0" y="8" width="1" height="1" fill="#1a1a1a"/><rect x="2" y="8" width="1" height="1" fill="#1a1a1a"/><rect x="3" y="8" width="9" height="1" fill="#e8843a"/><rect x="12" y="8" width="1" height="1" fill="#1a1a1a"/><rect x="0" y="9" width="1" height="1" fill="#e84c4c"/><rect x="2" y="9" width="1" height="1" fill="#1a1a1a"/><rect x="3" y="9" width="9" height="1" fill="#e8843a"/><rect x="12" y="9" width="1" height="1" fill="#1a1a1a"/><rect x="0" y="10" width="1" height="1" fill="#e84c4c"/><rect x="2" y="10" width="1" height="1" fill="#1a1a1a"/><rect x="3" y="10" width="9" height="1" fill="#e8843a"/><rect x="12" y="10" width="1" height="1" fill="#1a1a1a"/><rect x="0" y="11" width="1" height="1" fill="#1a1a1a"/><rect x="2" y="11" width="1" height="1" fill="#1a1a1a"/><rect x="3" y="11" width="9" height="1" fill="#e8843a"/><rect x="12" y="11" width="1" height="1" fill="#1a1a1a"/><rect x="2" y="12" width="1" height="1" fill="#1a1a1a"/><rect x="3" y="12" width="9" height="1" fill="#9a4e14"/><rect x="12" y="12" width="1" height="1" fill="#1a1a1a"/><rect x="3" y="3" width="1" height="1" fill="#3a3a3a"/><rect x="11" y="3" width="1" height="1" fill="#3a3a3a"/><rect x="3" y="4" width="1" height="1" fill="#3a3a3a"/><rect x="11" y="4" width="1" height="1" fill="#3a3a3a"/><rect x="3" y="2" width="9" height="1" fill="#3a3a3a"/></g>
</svg>