<?xml version="1.0" encoding="UTF-8"?>
<svg xmlns="http://www.w3.org/2000/svg" width="192" height="144" viewBox="0 0 24 18" shape-rendering="crispEdges">
  <title>Train · Wheels</title>
  <g id="wheels" data-part="wheels"><rect x="0" y="17" width="24" height="1" fill="#5a5a5a"/><rect x="2" y="13" width="4" height="1" fill="#1a1a1a"/><rect x="9" y="13" width="4" height="1" fill="#1a1a1a"/><rect x="16" y="13" width="4" height="1" fill="#1a1a1a"/><rect x="2" y="16" width="4" height="1" fill="#1a1a1a"/><rect x="9" y="16" width="4" height="1" fill="#1a1a1a"/><rect x="16" y="16" width="4" height="1" fill="#1a1a1a"/><rect x="2" y="14" width="1" height="1" fill="#1a1a1a"/><rect x="3" y="14" width="1" height="1" fill="#9aa2aa"/><rect x="4" y="14" width="1" height="1" fill="#2a2a2a"/><rect x="5" y="14" width="1" height="1" fill="#1a1a1a"/><rect x="9" y="14" width="1" height="1" fill="#1a1a1a"/><rect x="10" y="14" width="1" height="1" fill="#9aa2aa"/><rect x="11" y="14" width="1" height="1" fill="#2a2a2a"/><rect x="12" y="14" width="1" height="1" fill="#1a1a1a"/><rect x="16" y="14" width="1" height="1" fill="#1a1a1a"/><rect x="17" y="14" width="1" height="1" fill="#9aa2aa"/><rect x="18" y="14" width="1" height="1" fill="#2a2a2a"/><rect x="19" y="14" width="1" height="1" fill="#1a1a1a"/><rect x="2" y="15" width="1" height="1" fill="#1a1a1a"/><rect x="3" y="15" width="2" height="1" fill="#2a2a2a"/><rect x="5" y="15" width="1" height="1" fill="#1a1a1a"/><rect x="9" y="15" width="1" height="1" fill="#1a1a1a"/><rect x="10" y="15" width="2" height="1" fill="#2a2a2a"/><rect x="12" y="15" width="1" height="1" fill="#1a1a1a"/><rect x="16" y="15" width="1" height="1" fill="#1a1a1a"/><rect x="17" y="15" width="2" height="1" fill="#2a2a2a"/><rect x="19" y="15" width="1" height="1" fill="#1a1a1a"/></g>
</svg>