<?xml version="1.0" encoding="UTF-8"?>
<svg xmlns="http://www.w3.org/2000/svg" width="192" height="144" viewBox="0 0 24 18" shape-rendering="crispEdges">
  <title>Heavy Duty</title>
  <g id="wheels" data-part="wheels"><rect x="1" y="14" width="8" height="1" fill="#1a1a1a"/><rect x="17" y="14" width="4" height="1" fill="#1a1a1a"/><rect x="1" y="17" width="8" height="1" fill="#1a1a1a"/><rect x="17" y="17" width="4" height="1" fill="#1a1a1a"/><rect x="1" y="15" width="1" height="1" fill="#1a1a1a"/><rect x="2" y="15" width="1" height="1" fill="#bcbcbc"/><rect x="3" y="15" width="1" height="1" fill="#222"/><rect x="4" y="15" width="2" height="1" fill="#1a1a1a"/><rect x="6" y="15" width="1" height="1" fill="#bcbcbc"/><rect x="7" y="15" width="1" height="1" fill="#222"/><rect x="8" y="15" width="1" height="1" fill="#1a1a1a"/><rect x="17" y="15" width="1" height="1" fill="#1a1a1a"/><rect x="18" y="15" width="1" height="1" fill="#bcbcbc"/><rect x="19" y="15" width="1" height="1" fill="#222"/><rect x="20" y="15" width="1" height="1" fill="#1a1a1a"/><rect x="1" y="16" width="1" height="1" fill="#1a1a1a"/><rect x="2" y="16" width="2" height="1" fill="#222"/><rect x="4" y="16" width="2" height="1" fill="#1a1a1a"/><rect x="6" y="16" width="2" height="1" fill="#222"/><rect x="8" y="16" width="1" height="1" fill="#1a1a1a"/><rect x="17" y="16" width="1" height="1" fill="#1a1a1a"/><rect x="18" y="16" width="2" height="1" fill="#222"/><rect x="20" y="16" width="1" height="1" fill="#1a1a1a"/></g>
</svg>