<?xml version="1.0" encoding="UTF-8"?>
<svg xmlns="http://www.w3.org/2000/svg" width="192" height="144" viewBox="0 0 24 18" shape-rendering="crispEdges">
  <title>Train · Bogie</title>
  <g id="wheels" data-part="wheels"><rect x="0" y="17" width="24" height="1" fill="#5a5a5a"/><rect x="2" y="13" width="8" height="1" fill="#1a1a1a"/><rect x="13" y="13" width="8" height="1" fill="#1a1a1a"/><rect x="2" y="14" width="8" height="1" fill="#1a1a1a"/><rect x="13" y="14" width="8" height="1" fill="#1a1a1a"/><rect x="3" y="16" width="3" height="1" fill="#1a1a1a"/><rect x="7" y="16" width="3" height="1" fill="#1a1a1a"/><rect x="14" y="16" width="3" height="1" fill="#1a1a1a"/><rect x="18" y="16" width="3" height="1" fill="#1a1a1a"/><rect x="3" y="15" width="1" height="1" fill="#1a1a1a"/><rect x="4" y="15" width="1" height="1" fill="#9aa2aa"/><rect x="5" y="15" width="1" height="1" fill="#1a1a1a"/><rect x="7" y="15" width="1" height="1" fill="#1a1a1a"/><rect x="8" y="15" width="1" height="1" fill="#9aa2aa"/><rect x="9" y="15" width="1" height="1" fill="#1a1a1a"/><rect x="14" y="15" width="1" height="1" fill="#1a1a1a"/><rect x="15" y="15" width="1" height="1" fill="#9aa2aa"/><rect x="16" y="15" width="1" height="1" fill="#1a1a1a"/><rect x="18" y="15" width="1" height="1" fill="#1a1a1a"/><rect x="19" y="15" width="1" height="1" fill="#9aa2aa"/><rect x="20" y="15" width="1" height="1" fill="#1a1a1a"/></g>
</svg>