<?xml version="1.0" encoding="UTF-8"?>
<svg xmlns="http://www.w3.org/2000/svg" width="192" height="144" viewBox="0 0 24 18" shape-rendering="crispEdges">
  <title>Skull · Skull Hubs</title>
  <g id="wheels" data-part="wheels"><rect x="2" y="13" width="5" height="1" fill="#1a1a1a"/><rect x="17" y="13" width="5" height="1" fill="#1a1a1a"/><rect x="1" y="17" width="1" height="1" fill="#e84c4c"/><rect x="2" y="17" width="5" height="1" fill="#1a1a1a"/><rect x="17" y="17" width="5" height="1" fill="#1a1a1a"/><rect x="22" y="17" width="1" height="1" fill="#e84c4c"/><rect x="2" y="14" width="1" height="1" fill="#1a1a1a"/><rect x="3" y="14" width="3" height="1" fill="#e8e4d8"/><rect x="6" y="14" width="1" height="1" fill="#1a1a1a"/><rect x="17" y="14" width="1" height="1" fill="#1a1a1a"/><rect x="18" y="14" width="3" height="1" fill="#e8e4d8"/><rect x="21" y="14" width="1" height="1" fill="#1a1a1a"/><rect x="2" y="15" width="2" height="1" fill="#1a1a1a"/><rect x="4" y="15" width="1" height="1" fill="#e8e4d8"/><rect x="5" y="15" width="2" height="1" fill="#1a1a1a"/><rect x="17" y="15" width="2" height="1" fill="#1a1a1a"/><rect x="19" y="15" width="1" height="1" fill="#e8e4d8"/><rect x="20" y="15" width="2" height="1" fill="#1a1a1a"/><rect x="2" y="16" width="1" height="1" fill="#1a1a1a"/><rect x="3" y="16" width="1" height="1" fill="#1a161e"/><rect x="4" y="16" width="1" height="1" fill="#e8e4d8"/><rect x="5" y="16" width="1" height="1" fill="#1a161e"/><rect x="6" y="16" width="1" height="1" fill="#1a1a1a"/><rect x="17" y="16" width="1" height="1" fill="#1a1a1a"/><rect x="18" y="16" width="1" height="1" fill="#1a161e"/><rect x="19" y="16" width="1" height="1" fill="#e8e4d8"/><rect x="20" y="16" width="1" height="1" fill="#1a161e"/><rect x="21" y="16" width="1" height="1" fill="#1a1a1a"/></g>
</svg>