<?xml version="1.0" encoding="UTF-8"?>
<svg xmlns="http://www.w3.org/2000/svg" width="192" height="144" viewBox="0 0 24 18" shape-rendering="crispEdges">
  <title>Train · Drivers</title>
  <g id="wheels" data-part="wheels"><rect x="0" y="17" width="24" height="1" fill="#5a5a5a"/><rect x="4" y="11" width="6" height="1" fill="#1a1a1a"/><rect x="11" y="11" width="6" height="1" fill="#1a1a1a"/><rect x="4" y="16" width="2" height="1" fill="#1a1a1a"/><rect x="6" y="16" width="8" height="1" fill="#6a7278"/><rect x="14" y="16" width="3" height="1" fill="#1a1a1a"/><rect x="18" y="16" width="3" height="1" fill="#1a1a1a"/><rect x="4" y="12" width="1" height="1" fill="#1a1a1a"/><rect x="5" y="12" width="1" height="1" fill="#6a7278"/><rect x="6" y="12" width="2" height="1" fill="#2a2a2a"/><rect x="8" y="12" width="1" height="1" fill="#6a7278"/><rect x="9" y="12" width="1" height="1" fill="#1a1a1a"/><rect x="11" y="12" width="1" height="1" fill="#1a1a1a"/><rect x="12" y="12" width="1" height="1" fill="#6a7278"/><rect x="13" y="12" width="2" height="1" fill="#2a2a2a"/><rect x="15" y="12" width="1" height="1" fill="#6a7278"/><rect x="16" y="12" width="1" height="1" fill="#1a1a1a"/><rect x="4" y="13" width="1" height="1" fill="#1a1a1a"/><rect x="5" y="13" width="1" height="1" fill="#2a2a2a"/><rect x="6" y="13" width="2" height="1" fill="#9aa2aa"/><rect x="8" y="13" width="1" height="1" fill="#2a2a2a"/><rect x="9" y="13" width="1" height="1" fill="#1a1a1a"/><rect x="11" y="13" width="1" height="1" fill="#1a1a1a"/><rect x="12" y="13" width="1" height="1" fill="#2a2a2a"/><rect x="13" y="13" width="2" height="1" fill="#9aa2aa"/><rect x="15" y="13" width="1" height="1" fill="#2a2a2a"/><rect x="16" y="13" width="1" height="1" fill="#1a1a1a"/><rect x="4" y="14" width="1" height="1" fill="#1a1a1a"/><rect x="5" y="14" width="1" height="1" fill="#2a2a2a"/><rect x="6" y="14" width="2" height="1" fill="#9aa2aa"/><rect x="8" y="14" width="1" height="1" fill="#2a2a2a"/><rect x="9" y="14" width="1" height="1" fill="#1a1a1a"/><rect x="11" y="14" width="1" height="1" fill="#1a1a1a"/><rect x="12" y="14" width="1" height="1" fill="#2a2a2a"/><rect x="13" y="14" width="2" height="1" fill="#9aa2aa"/><rect x="15" y="14" width="1" height="1" fill="#2a2a2a"/><rect x="16" y="14" width="1" height="1" fill="#1a1a1a"/><rect x="18" y="14" width="3" height="1" fill="#1a1a1a"/><rect x="4" y="15" width="1" height="1" fill="#1a1a1a"/><rect x="5" y="15" width="1" height="1" fill="#6a7278"/><rect x="6" y="15" width="2" height="1" fill="#2a2a2a"/><rect x="8" y="15" width="1" height="1" fill="#6a7278"/><rect x="9" y="15" width="1" height="1" fill="#1a1a1a"/><rect x="11" y="15" width="1" height="1" fill="#1a1a1a"/><rect x="12" y="15" width="1" height="1" fill="#6a7278"/><rect x="13" y="15" width="2" height="1" fill="#2a2a2a"/><rect x="15" y="15" width="1" height="1" fill="#6a7278"/><rect x="16" y="15" width="1" height="1" fill="#1a1a1a"/><rect x="18" y="15" width="1" height="1" fill="#1a1a1a"/><rect x="19" y="15" width="1" height="1" fill="#6a7278"/><rect x="20" y="15" width="1" height="1" fill="#1a1a1a"/></g>
</svg>