<?xml version="1.0" encoding="UTF-8"?>
<svg xmlns="http://www.w3.org/2000/svg" width="192" height="144" viewBox="0 0 24 18" shape-rendering="crispEdges">
  <title>Express Black</title>
  <g id="body" data-part="body"><rect x="1" y="3" width="13" height="1" fill="#1a1a1a"/><rect x="1" y="14" width="13" height="1" fill="#1a1a1a"/><rect x="1" y="4" width="13" height="1" fill="#1a1a1a"/><rect x="1" y="5" width="13" height="1" fill="#1a1a1a"/><rect x="1" y="6" width="1" height="1" fill="#1a1a1a"/><rect x="2" y="6" width="6" height="1" fill="#f4d166"/><rect x="8" y="6" width="1" height="1" fill="#1a1a1a"/><rect x="9" y="6" width="4" height="1" fill="#f4d166"/><rect x="13" y="6" width="1" height="1" fill="#1a1a1a"/><rect x="1" y="7" width="1" height="1" fill="#1a1a1a"/><rect x="2" y="7" width="6" height="1" fill="#5fb3a1"/><rect x="8" y="7" width="1" height="1" fill="#1a1a1a"/><rect x="9" y="7" width="4" height="1" fill="#5fb3a1"/><rect x="13" y="7" width="1" height="1" fill="#1a1a1a"/><rect x="0" y="8" width="14" height="1" fill="#1a1a1a"/><rect x="0" y="9" width="1" height="1" fill="#e84c4c"/><rect x="1" y="9" width="3" height="1" fill="#1a1a1a"/><rect x="4" y="9" width="3" height="1" fill="#f4d166"/><rect x="7" y="9" width="7" height="1" fill="#1a1a1a"/><rect x="0" y="10" width="1" height="1" fill="#e84c4c"/><rect x="1" y="10" width="3" height="1" fill="#1a1a1a"/><rect x="4" y="10" width="1" height="1" fill="#f4d166"/><rect x="5" y="10" width="9" height="1" fill="#1a1a1a"/><rect x="0" y="11" width="14" height="1" fill="#1a1a1a"/><rect x="1" y="12" width="13" height="1" fill="#1a1a1a"/><rect x="1" y="13" width="13" height="1" fill="#1a1a1a"/></g>
</svg>