<?xml version="1.0" encoding="UTF-8"?>
<svg xmlns="http://www.w3.org/2000/svg" width="192" height="144" viewBox="0 0 24 18" shape-rendering="crispEdges">
  <title>Black</title>
  <g id="cab" data-part="cab"><rect x="14" y="5" width="8" height="1" fill="#1a1a1a"/><rect x="14" y="13" width="10" height="1" fill="#1a1a1a"/><rect x="14" y="6" width="8" height="1" fill="#1a1a1a"/><rect x="13" y="7" width="2" height="1" fill="#1a1a1a"/><rect x="15" y="7" width="3" height="1" fill="#5fb3a1"/><rect x="18" y="7" width="1" height="1" fill="#1a1a1a"/><rect x="19" y="7" width="2" height="1" fill="#5fb3a1"/><rect x="21" y="7" width="1" height="1" fill="#1a1a1a"/><rect x="14" y="8" width="1" height="1" fill="#1a1a1a"/><rect x="15" y="8" width="3" height="1" fill="#2e6e60"/><rect x="18" y="8" width="1" height="1" fill="#1a1a1a"/><rect x="19" y="8" width="2" height="1" fill="#2e6e60"/><rect x="21" y="8" width="3" height="1" fill="#1a1a1a"/><rect x="14" y="9" width="10" height="1" fill="#1a1a1a"/><rect x="14" y="10" width="10" height="1" fill="#1a1a1a"/><rect x="14" y="11" width="8" height="1" fill="#1a1a1a"/><rect x="22" y="11" width="1" height="1" fill="#3a3a3a"/><rect x="23" y="11" width="1" height="1" fill="#ffd166"/><rect x="14" y="12" width="1" height="1" fill="#1a1a1a"/><rect x="15" y="12" width="6" height="1" fill="#f4d166"/><rect x="21" y="12" width="2" height="1" fill="#1a1a1a"/><rect x="23" y="12" width="1" height="1" fill="#ffd166"/></g>
</svg>