<?xml version="1.0" encoding="UTF-8"?>
<svg xmlns="http://www.w3.org/2000/svg" width="192" height="144" viewBox="0 0 24 18" shape-rendering="crispEdges">
  <title>Turret · Desert</title>
  <g id="body" data-part="body"><rect x="1" y="11" width="13" height="1" fill="#1a1a1a"/><rect x="1" y="14" width="13" height="1" fill="#1a1a1a"/><rect x="1" y="12" width="1" height="1" fill="#1a1a1a"/><rect x="2" y="12" width="11" height="1" fill="#dcc498"/><rect x="13" y="12" width="1" height="1" fill="#1a1a1a"/><rect x="1" y="13" width="1" height="1" fill="#1a1a1a"/><rect x="2" y="13" width="11" height="1" fill="#c2a878"/><rect x="13" y="13" width="1" height="1" fill="#1a1a1a"/><rect x="2" y="5" width="6" height="1" fill="#1a1a1a"/><rect x="8" y="5" width="2" height="1" fill="#8a9668"/><rect x="10" y="5" width="3" height="1" fill="#1a1a1a"/><rect x="2" y="10" width="11" height="1" fill="#1a1a1a"/><rect x="2" y="6" width="1" height="1" fill="#1a1a1a"/><rect x="3" y="6" width="9" height="1" fill="#dcc498"/><rect x="12" y="6" width="1" height="1" fill="#1a1a1a"/><rect x="2" y="7" width="1" height="1" fill="#1a1a1a"/><rect x="3" y="7" width="10" height="1" fill="#c2a878"/><rect x="13" y="7" width="1" height="1" fill="#1a1a1a"/><rect x="2" y="8" width="1" height="1" fill="#1a1a1a"/><rect x="3" y="8" width="10" height="1" fill="#c2a878"/><rect x="13" y="8" width="1" height="1" fill="#1a1a1a"/><rect x="2" y="9" width="1" height="1" fill="#1a1a1a"/><rect x="3" y="9" width="9" height="1" fill="#917b50"/><rect x="12" y="9" width="1" height="1" fill="#c2a878"/><rect x="13" y="9" width="1" height="1" fill="#1a1a1a"/><rect x="2" y="3" width="4" height="1" fill="#1a1a1a"/><rect x="2" y="4" width="1" height="1" fill="#1a1a1a"/><rect x="3" y="4" width="2" height="1" fill="#6a5a3a"/><rect x="5" y="4" width="1" height="1" fill="#1a1a1a"/><rect x="8" y="4" width="2" height="1" fill="#1a1a1a"/></g>
</svg>