<?xml version="1.0" encoding="UTF-8"?>
<svg xmlns="http://www.w3.org/2000/svg" width="192" height="144" viewBox="0 0 24 18" shape-rendering="crispEdges">
  <title>Const · Roller Drum</title>
  <g id="wheels" data-part="wheels"><rect x="13" y="11" width="9" height="1" fill="#1a1a1a"/><rect x="3" y="17" width="5" height="1" fill="#1a1a1a"/><rect x="13" y="17" width="9" height="1" fill="#1a1a1a"/><rect x="13" y="12" width="1" height="1" fill="#1a1a1a"/><rect x="14" y="12" width="2" height="1" fill="#5a5a5a"/><rect x="16" y="12" width="1" height="1" fill="#888"/><rect x="17" y="12" width="2" height="1" fill="#5a5a5a"/><rect x="19" y="12" width="1" height="1" fill="#888"/><rect x="20" y="12" width="1" height="1" fill="#5a5a5a"/><rect x="21" y="12" width="1" height="1" fill="#1a1a1a"/><rect x="3" y="13" width="5" height="1" fill="#1a1a1a"/><rect x="13" y="13" width="1" height="1" fill="#1a1a1a"/><rect x="14" y="13" width="2" height="1" fill="#bcbcbc"/><rect x="16" y="13" width="1" height="1" fill="#888"/><rect x="17" y="13" width="2" height="1" fill="#bcbcbc"/><rect x="19" y="13" width="1" height="1" fill="#888"/><rect x="20" y="13" width="1" height="1" fill="#bcbcbc"/><rect x="21" y="13" width="1" height="1" fill="#1a1a1a"/><rect x="3" y="14" width="1" height="1" fill="#1a1a1a"/><rect x="4" y="14" width="3" height="1" fill="#2a2a2a"/><rect x="7" y="14" width="1" height="1" fill="#1a1a1a"/><rect x="13" y="14" width="1" height="1" fill="#1a1a1a"/><rect x="14" y="14" width="2" height="1" fill="#bcbcbc"/><rect x="16" y="14" width="1" height="1" fill="#888"/><rect x="17" y="14" width="2" height="1" fill="#bcbcbc"/><rect x="19" y="14" width="1" height="1" fill="#888"/><rect x="20" y="14" width="1" height="1" fill="#bcbcbc"/><rect x="21" y="14" width="1" height="1" fill="#1a1a1a"/><rect x="3" y="15" width="1" height="1" fill="#1a1a1a"/><rect x="4" y="15" width="1" height="1" fill="#2a2a2a"/><rect x="5" y="15" width="1" height="1" fill="#bcbcbc"/><rect x="6" y="15" width="1" height="1" fill="#2a2a2a"/><rect x="7" y="15" width="1" height="1" fill="#1a1a1a"/><rect x="13" y="15" width="1" height="1" fill="#1a1a1a"/><rect x="14" y="15" width="2" height="1" fill="#bcbcbc"/><rect x="16" y="15" width="1" height="1" fill="#888"/><rect x="17" y="15" width="2" height="1" fill="#bcbcbc"/><rect x="19" y="15" width="1" height="1" fill="#888"/><rect x="20" y="15" width="1" height="1" fill="#bcbcbc"/><rect x="21" y="15" width="1" height="1" fill="#1a1a1a"/><rect x="3" y="16" width="1" height="1" fill="#1a1a1a"/><rect x="4" y="16" width="3" height="1" fill="#2a2a2a"/><rect x="7" y="16" width="1" height="1" fill="#1a1a1a"/><rect x="13" y="16" width="1" height="1" fill="#1a1a1a"/><rect x="14" y="16" width="2" height="1" fill="#bcbcbc"/><rect x="16" y="16" width="1" height="1" fill="#888"/><rect x="17" y="16" width="2" height="1" fill="#bcbcbc"/><rect x="19" y="16" width="1" height="1" fill="#888"/><rect x="20" y="16" width="1" height="1" fill="#bcbcbc"/><rect x="21" y="16" width="1" height="1" fill="#1a1a1a"/></g>
</svg>