<?xml version="1.0" encoding="UTF-8"?>
<svg xmlns="http://www.w3.org/2000/svg" width="192" height="144" viewBox="0 0 24 18" shape-rendering="crispEdges">
  <title>Moving Cream</title>
  <g id="body" data-part="body"><rect x="1" y="3" width="13" height="1" fill="#1a1a1a"/><rect x="1" y="14" width="13" height="1" fill="#1a1a1a"/><rect x="1" y="4" width="1" height="1" fill="#1a1a1a"/><rect x="2" y="4" width="7" height="1" fill="#f8f4ea"/><rect x="9" y="4" width="1" height="1" fill="#a89d85"/><rect x="10" y="4" width="3" height="1" fill="#f8f4ea"/><rect x="13" y="4" width="1" height="1" fill="#1a1a1a"/><rect x="1" y="5" width="1" height="1" fill="#1a1a1a"/><rect x="2" y="5" width="7" height="1" fill="#e8e1d4"/><rect x="9" y="5" width="1" height="1" fill="#a89d85"/><rect x="10" y="5" width="3" height="1" fill="#e8e1d4"/><rect x="13" y="5" width="1" height="1" fill="#1a1a1a"/><rect x="1" y="6" width="1" height="1" fill="#1a1a1a"/><rect x="2" y="6" width="7" height="1" fill="#c64545"/><rect x="9" y="6" width="1" height="1" fill="#a89d85"/><rect x="10" y="6" width="3" height="1" fill="#c64545"/><rect x="13" y="6" width="1" height="1" fill="#1a1a1a"/><rect x="1" y="7" width="1" height="1" fill="#1a1a1a"/><rect x="2" y="7" width="7" height="1" fill="#e8e1d4"/><rect x="9" y="7" width="1" height="1" fill="#a89d85"/><rect x="10" y="7" width="3" height="1" fill="#e8e1d4"/><rect x="13" y="7" width="1" height="1" fill="#1a1a1a"/><rect x="0" y="8" width="2" height="1" fill="#1a1a1a"/><rect x="2" y="8" width="2" height="1" fill="#e8e1d4"/><rect x="4" y="8" width="3" height="1" fill="#1a1a1a"/><rect x="7" y="8" width="2" height="1" fill="#e8e1d4"/><rect x="9" y="8" width="1" height="1" fill="#a89d85"/><rect x="10" y="8" width="3" height="1" fill="#e8e1d4"/><rect x="13" y="8" width="1" height="1" fill="#1a1a1a"/><rect x="0" y="9" width="1" height="1" fill="#e84c4c"/><rect x="1" y="9" width="1" height="1" fill="#1a1a1a"/><rect x="2" y="9" width="2" height="1" fill="#e8e1d4"/><rect x="4" y="9" width="1" height="1" fill="#1a1a1a"/><rect x="5" y="9" width="1" height="1" fill="#f4c542"/><rect x="6" y="9" width="1" height="1" fill="#1a1a1a"/><rect x="7" y="9" width="2" height="1" fill="#e8e1d4"/><rect x="9" y="9" width="1" height="1" fill="#a89d85"/><rect x="10" y="9" width="3" height="1" fill="#e8e1d4"/><rect x="13" y="9" width="1" height="1" fill="#1a1a1a"/><rect x="0" y="10" width="1" height="1" fill="#e84c4c"/><rect x="1" y="10" width="1" height="1" fill="#1a1a1a"/><rect x="2" y="10" width="2" height="1" fill="#e8e1d4"/><rect x="4" y="10" width="3" height="1" fill="#1a1a1a"/><rect x="7" y="10" width="2" height="1" fill="#e8e1d4"/><rect x="9" y="10" width="1" height="1" fill="#a89d85"/><rect x="10" y="10" width="3" height="1" fill="#e8e1d4"/><rect x="13" y="10" width="1" height="1" fill="#1a1a1a"/><rect x="0" y="11" width="2" height="1" fill="#1a1a1a"/><rect x="2" y="11" width="7" height="1" fill="#e8e1d4"/><rect x="9" y="11" width="1" height="1" fill="#a89d85"/><rect x="10" y="11" width="3" height="1" fill="#e8e1d4"/><rect x="13" y="11" width="1" height="1" fill="#1a1a1a"/><rect x="1" y="12" width="1" height="1" fill="#1a1a1a"/><rect x="2" y="12" width="7" height="1" fill="#c64545"/><rect x="9" y="12" width="1" height="1" fill="#a89d85"/><rect x="10" y="12" width="3" height="1" fill="#c64545"/><rect x="13" y="12" width="1" height="1" fill="#1a1a1a"/><rect x="1" y="13" width="1" height="1" fill="#1a1a1a"/><rect x="2" y="13" width="7" height="1" fill="#e8e1d4"/><rect x="9" y="13" width="1" height="1" fill="#a89d85"/><rect x="10" y="13" width="3" height="1" fill="#e8e1d4"/><rect x="13" y="13" width="1" height="1" fill="#1a1a1a"/></g>
</svg>