<?xml version="1.0" encoding="UTF-8"?>
<svg xmlns="http://www.w3.org/2000/svg" width="192" height="144" viewBox="0 0 24 18" shape-rendering="crispEdges">
  <title>Skull · Ghost Hover</title>
  <g id="wheels" data-part="wheels"><rect x="2" y="15" width="1" height="1" fill="#5fb3d9"/><rect x="3" y="15" width="1" height="1" fill="#cfe0e8"/><rect x="4" y="15" width="1" height="1" fill="#5fb3d9"/><rect x="6" y="15" width="1" height="1" fill="#5fb3d9"/><rect x="7" y="15" width="1" height="1" fill="#cfe0e8"/><rect x="8" y="15" width="1" height="1" fill="#5fb3d9"/><rect x="10" y="15" width="1" height="1" fill="#5fb3d9"/><rect x="11" y="15" width="1" height="1" fill="#cfe0e8"/><rect x="12" y="15" width="1" height="1" fill="#5fb3d9"/><rect x="14" y="15" width="1" height="1" fill="#5fb3d9"/><rect x="15" y="15" width="1" height="1" fill="#cfe0e8"/><rect x="16" y="15" width="1" height="1" fill="#5fb3d9"/><rect x="18" y="15" width="1" height="1" fill="#5fb3d9"/><rect x="19" y="15" width="1" height="1" fill="#cfe0e8"/><rect x="20" y="15" width="1" height="1" fill="#5fb3d9"/><rect x="3" y="16" width="1" height="1" fill="#2a6d8a"/><rect x="7" y="16" width="1" height="1" fill="#2a6d8a"/><rect x="11" y="16" width="1" height="1" fill="#2a6d8a"/><rect x="15" y="16" width="1" height="1" fill="#2a6d8a"/><rect x="19" y="16" width="1" height="1" fill="#2a6d8a"/><rect x="4" y="17" width="1" height="1" fill="#2a6d8a"/><rect x="12" y="17" width="1" height="1" fill="#2a6d8a"/><rect x="20" y="17" width="1" height="1" fill="#2a6d8a"/></g>
</svg>