<?xml version="1.0" encoding="UTF-8"?>
<svg xmlns="http://www.w3.org/2000/svg" width="192" height="144" viewBox="0 0 24 18" shape-rendering="crispEdges">
  <title>Const · Loader Tires</title>
  <g id="wheels" data-part="wheels"><rect x="2" y="12" width="6" height="1" fill="#1a1a1a"/><rect x="16" y="12" width="6" height="1" fill="#1a1a1a"/><rect x="2" y="17" width="6" height="1" fill="#1a1a1a"/><rect x="16" y="17" width="6" height="1" fill="#1a1a1a"/><rect x="2" y="13" width="1" height="1" fill="#1a1a1a"/><rect x="3" y="13" width="1" height="1" fill="#2a2a2a"/><rect x="4" y="13" width="1" height="1" fill="#444"/><rect x="5" y="13" width="2" height="1" fill="#2a2a2a"/><rect x="7" y="13" width="1" height="1" fill="#1a1a1a"/><rect x="16" y="13" width="1" height="1" fill="#1a1a1a"/><rect x="17" y="13" width="1" height="1" fill="#2a2a2a"/><rect x="18" y="13" width="1" height="1" fill="#444"/><rect x="19" y="13" width="2" height="1" fill="#2a2a2a"/><rect x="21" y="13" width="1" height="1" fill="#1a1a1a"/><rect x="2" y="14" width="1" height="1" fill="#1a1a1a"/><rect x="3" y="14" width="1" height="1" fill="#2a2a2a"/><rect x="4" y="14" width="2" height="1" fill="#f4c430"/><rect x="6" y="14" width="1" height="1" fill="#2a2a2a"/><rect x="7" y="14" width="1" height="1" fill="#1a1a1a"/><rect x="16" y="14" width="1" height="1" fill="#1a1a1a"/><rect x="17" y="14" width="1" height="1" fill="#2a2a2a"/><rect x="18" y="14" width="2" height="1" fill="#f4c430"/><rect x="20" y="14" width="1" height="1" fill="#2a2a2a"/><rect x="21" y="14" width="1" height="1" fill="#1a1a1a"/><rect x="2" y="15" width="1" height="1" fill="#1a1a1a"/><rect x="3" y="15" width="1" height="1" fill="#2a2a2a"/><rect x="4" y="15" width="2" height="1" fill="#f4c430"/><rect x="6" y="15" width="1" height="1" fill="#2a2a2a"/><rect x="7" y="15" width="1" height="1" fill="#1a1a1a"/><rect x="16" y="15" width="1" height="1" fill="#1a1a1a"/><rect x="17" y="15" width="1" height="1" fill="#2a2a2a"/><rect x="18" y="15" width="2" height="1" fill="#f4c430"/><rect x="20" y="15" width="1" height="1" fill="#2a2a2a"/><rect x="21" y="15" width="1" height="1" fill="#1a1a1a"/><rect x="2" y="16" width="1" height="1" fill="#1a1a1a"/><rect x="3" y="16" width="2" height="1" fill="#2a2a2a"/><rect x="5" y="16" width="1" height="1" fill="#444"/><rect x="6" y="16" width="1" height="1" fill="#2a2a2a"/><rect x="7" y="16" width="1" height="1" fill="#1a1a1a"/><rect x="16" y="16" width="1" height="1" fill="#1a1a1a"/><rect x="17" y="16" width="2" height="1" fill="#2a2a2a"/><rect x="19" y="16" width="1" height="1" fill="#444"/><rect x="20" y="16" width="1" height="1" fill="#2a2a2a"/><rect x="21" y="16" width="1" height="1" fill="#1a1a1a"/></g>
</svg>