<?xml version="1.0" encoding="UTF-8"?>
<svg xmlns="http://www.w3.org/2000/svg" width="192" height="144" viewBox="0 0 24 18" shape-rendering="crispEdges">
  <title>Dino · Egg Nest</title>
  <g id="body" data-part="body"><rect x="1" y="5" width="2" height="1" fill="#1a1a1a"/><rect x="5" y="5" width="2" height="1" fill="#1a1a1a"/><rect x="9" y="5" width="2" height="1" fill="#1a1a1a"/><rect x="0" y="6" width="1" height="1" fill="#1a1a1a"/><rect x="1" y="6" width="2" height="1" fill="#f4ecd8"/><rect x="3" y="6" width="2" height="1" fill="#1a1a1a"/><rect x="5" y="6" width="2" height="1" fill="#f4ecd8"/><rect x="7" y="6" width="2" height="1" fill="#1a1a1a"/><rect x="9" y="6" width="2" height="1" fill="#f4ecd8"/><rect x="11" y="6" width="1" height="1" fill="#1a1a1a"/><rect x="0" y="7" width="1" height="1" fill="#1a1a1a"/><rect x="1" y="7" width="1" height="1" fill="#f4ecd8"/><rect x="2" y="7" width="1" height="1" fill="#c8b898"/><rect x="3" y="7" width="2" height="1" fill="#1a1a1a"/><rect x="5" y="7" width="1" height="1" fill="#f4ecd8"/><rect x="6" y="7" width="1" height="1" fill="#c8b898"/><rect x="7" y="7" width="2" height="1" fill="#1a1a1a"/><rect x="9" y="7" width="1" height="1" fill="#f4ecd8"/><rect x="10" y="7" width="1" height="1" fill="#c8b898"/><rect x="11" y="7" width="1" height="1" fill="#1a1a1a"/><rect x="0" y="8" width="1" height="1" fill="#1a1a1a"/><rect x="1" y="8" width="2" height="1" fill="#f4ecd8"/><rect x="3" y="8" width="2" height="1" fill="#1a1a1a"/><rect x="5" y="8" width="2" height="1" fill="#f4ecd8"/><rect x="7" y="8" width="2" height="1" fill="#1a1a1a"/><rect x="9" y="8" width="2" height="1" fill="#f4ecd8"/><rect x="11" y="8" width="1" height="1" fill="#1a1a1a"/><rect x="1" y="9" width="2" height="1" fill="#1a1a1a"/><rect x="5" y="9" width="2" height="1" fill="#1a1a1a"/><rect x="9" y="9" width="2" height="1" fill="#1a1a1a"/><rect x="1" y="10" width="1" height="1" fill="#1a1a1a"/><rect x="2" y="10" width="10" height="1" fill="#8a6a4a"/><rect x="12" y="10" width="1" height="1" fill="#1a1a1a"/><rect x="0" y="11" width="1" height="1" fill="#1a1a1a"/><rect x="1" y="11" width="1" height="1" fill="#8a6a4a"/><rect x="2" y="11" width="1" height="1" fill="#aa8a62"/><rect x="3" y="11" width="1" height="1" fill="#8a6a4a"/><rect x="4" y="11" width="1" height="1" fill="#aa8a62"/><rect x="5" y="11" width="1" height="1" fill="#8a6a4a"/><rect x="6" y="11" width="1" height="1" fill="#aa8a62"/><rect x="7" y="11" width="1" height="1" fill="#8a6a4a"/><rect x="8" y="11" width="1" height="1" fill="#aa8a62"/><rect x="9" y="11" width="1" height="1" fill="#8a6a4a"/><rect x="10" y="11" width="1" height="1" fill="#aa8a62"/><rect x="11" y="11" width="2" height="1" fill="#8a6a4a"/><rect x="13" y="11" width="1" height="1" fill="#1a1a1a"/><rect x="0" y="12" width="1" height="1" fill="#1a1a1a"/><rect x="1" y="12" width="12" height="1" fill="#8a6a4a"/><rect x="13" y="12" width="1" height="1" fill="#1a1a1a"/><rect x="1" y="13" width="12" height="1" fill="#1a1a1a"/></g>
</svg>