<?xml version="1.0" encoding="UTF-8"?>
<svg xmlns="http://www.w3.org/2000/svg" width="192" height="144" viewBox="0 0 24 18" shape-rendering="crispEdges">
  <title>Skull · Bone Pile</title>
  <g id="body" data-part="body"><rect x="1" y="5" width="5" height="1" fill="#1a1a1a"/><rect x="0" y="6" width="1" height="1" fill="#1a1a1a"/><rect x="1" y="6" width="5" height="1" fill="#e8e4d8"/><rect x="6" y="6" width="1" height="1" fill="#1a1a1a"/><rect x="0" y="7" width="1" height="1" fill="#1a1a1a"/><rect x="1" y="7" width="1" height="1" fill="#e8e4d8"/><rect x="2" y="7" width="1" height="1" fill="#1a1a1a"/><rect x="3" y="7" width="1" height="1" fill="#e8e4d8"/><rect x="4" y="7" width="1" height="1" fill="#1a1a1a"/><rect x="5" y="7" width="1" height="1" fill="#e8e4d8"/><rect x="6" y="7" width="1" height="1" fill="#1a1a1a"/><rect x="1" y="8" width="1" height="1" fill="#1a1a1a"/><rect x="2" y="8" width="3" height="1" fill="#e8e4d8"/><rect x="5" y="8" width="1" height="1" fill="#1a1a1a"/><rect x="0" y="9" width="2" height="1" fill="#e8e4d8"/><rect x="12" y="9" width="2" height="1" fill="#e8e4d8"/><rect x="0" y="10" width="2" height="1" fill="#e8e4d8"/><rect x="2" y="10" width="10" height="1" fill="#b8b4a8"/><rect x="12" y="10" width="2" height="1" fill="#e8e4d8"/><rect x="2" y="11" width="2" height="1" fill="#e8e4d8"/><rect x="10" y="11" width="2" height="1" fill="#e8e4d8"/><rect x="2" y="12" width="2" height="1" fill="#e8e4d8"/><rect x="4" y="12" width="6" height="1" fill="#b8b4a8"/><rect x="10" y="12" width="2" height="1" fill="#e8e4d8"/></g>
</svg>