<?xml version="1.0" encoding="UTF-8"?>
<svg xmlns="http://www.w3.org/2000/svg" width="192" height="144" viewBox="0 0 24 18" shape-rendering="crispEdges">
  <title>Gas Tank</title>
  <g id="body" data-part="body"><rect x="2" y="5" width="1" height="1" fill="#1a1a1a"/><rect x="3" y="5" width="8" height="1" fill="#d8703a"/><rect x="11" y="5" width="1" height="1" fill="#1a1a1a"/><rect x="1" y="6" width="1" height="1" fill="#1a1a1a"/><rect x="2" y="6" width="1" height="1" fill="#d8703a"/><rect x="3" y="6" width="7" height="1" fill="#e89878"/><rect x="10" y="6" width="2" height="1" fill="#d8703a"/><rect x="12" y="6" width="1" height="1" fill="#1a1a1a"/><rect x="1" y="7" width="1" height="1" fill="#1a1a1a"/><rect x="2" y="7" width="11" height="1" fill="#d8703a"/><rect x="13" y="7" width="1" height="1" fill="#1a1a1a"/><rect x="0" y="8" width="1" height="1" fill="#1a1a1a"/><rect x="1" y="8" width="12" height="1" fill="#d8703a"/><rect x="13" y="8" width="1" height="1" fill="#1a1a1a"/><rect x="0" y="9" width="1" height="1" fill="#1a1a1a"/><rect x="1" y="9" width="2" height="1" fill="#d8703a"/><rect x="3" y="9" width="8" height="1" fill="#fff"/><rect x="11" y="9" width="2" height="1" fill="#d8703a"/><rect x="13" y="9" width="1" height="1" fill="#1a1a1a"/><rect x="0" y="10" width="1" height="1" fill="#1a1a1a"/><rect x="1" y="10" width="12" height="1" fill="#d8703a"/><rect x="13" y="10" width="1" height="1" fill="#1a1a1a"/><rect x="0" y="11" width="1" height="1" fill="#1a1a1a"/><rect x="1" y="11" width="12" height="1" fill="#d8703a"/><rect x="13" y="11" width="1" height="1" fill="#1a1a1a"/><rect x="0" y="12" width="1" height="1" fill="#e84c4c"/><rect x="1" y="12" width="1" height="1" fill="#1a1a1a"/><rect x="2" y="12" width="11" height="1" fill="#d8703a"/><rect x="13" y="12" width="1" height="1" fill="#1a1a1a"/><rect x="1" y="13" width="2" height="1" fill="#1a1a1a"/><rect x="3" y="13" width="7" height="1" fill="#a8492e"/><rect x="10" y="13" width="1" height="1" fill="#d8703a"/><rect x="11" y="13" width="2" height="1" fill="#1a1a1a"/><rect x="3" y="4" width="8" height="1" fill="#1a1a1a"/><rect x="3" y="14" width="8" height="1" fill="#1a1a1a"/><rect x="6" y="2" width="3" height="1" fill="#1a1a1a"/><rect x="6" y="3" width="1" height="1" fill="#1a1a1a"/><rect x="7" y="3" width="1" height="1" fill="#888"/><rect x="8" y="3" width="1" height="1" fill="#1a1a1a"/></g>
</svg>