<?xml version="1.0" encoding="UTF-8"?>
<svg xmlns="http://www.w3.org/2000/svg" width="192" height="144" viewBox="0 0 24 18" shape-rendering="crispEdges">
  <title>Train · Freight</title>
  <g id="wheels" data-part="wheels"><rect x="0" y="17" width="24" height="1" fill="#5a5a5a"/><rect x="1" y="14" width="6" height="1" fill="#1a1a1a"/><rect x="9" y="14" width="6" height="1" fill="#1a1a1a"/><rect x="17" y="14" width="6" height="1" fill="#1a1a1a"/><rect x="1" y="16" width="1" height="1" fill="#1a1a1a"/><rect x="2" y="16" width="1" height="1" fill="#8a9298"/><rect x="3" y="16" width="2" height="1" fill="#1a1a1a"/><rect x="5" y="16" width="1" height="1" fill="#8a9298"/><rect x="6" y="16" width="1" height="1" fill="#1a1a1a"/><rect x="9" y="16" width="1" height="1" fill="#1a1a1a"/><rect x="10" y="16" width="1" height="1" fill="#8a9298"/><rect x="11" y="16" width="2" height="1" fill="#1a1a1a"/><rect x="13" y="16" width="1" height="1" fill="#8a9298"/><rect x="14" y="16" width="1" height="1" fill="#1a1a1a"/><rect x="17" y="16" width="1" height="1" fill="#1a1a1a"/><rect x="18" y="16" width="1" height="1" fill="#8a9298"/><rect x="19" y="16" width="2" height="1" fill="#1a1a1a"/><rect x="21" y="16" width="1" height="1" fill="#8a9298"/><rect x="22" y="16" width="1" height="1" fill="#1a1a1a"/><rect x="1" y="15" width="1" height="1" fill="#1a1a1a"/><rect x="2" y="15" width="4" height="1" fill="#3a4148"/><rect x="6" y="15" width="1" height="1" fill="#1a1a1a"/><rect x="9" y="15" width="1" height="1" fill="#1a1a1a"/><rect x="10" y="15" width="4" height="1" fill="#3a4148"/><rect x="14" y="15" width="1" height="1" fill="#1a1a1a"/><rect x="17" y="15" width="1" height="1" fill="#1a1a1a"/><rect x="18" y="15" width="4" height="1" fill="#3a4148"/><rect x="22" y="15" width="1" height="1" fill="#1a1a1a"/></g>
</svg>