<?xml version="1.0" encoding="UTF-8"?>
<svg xmlns="http://www.w3.org/2000/svg" width="192" height="144" viewBox="0 0 24 18" shape-rendering="crispEdges">
  <title>Excavator House</title>
  <g id="body" data-part="body"><rect x="1" y="13" width="13" height="1" fill="#1a1a1a"/><rect x="1" y="6" width="13" height="1" fill="#1a1a1a"/><rect x="1" y="7" width="1" height="1" fill="#1a1a1a"/><rect x="2" y="7" width="11" height="1" fill="#ffd166"/><rect x="13" y="7" width="1" height="1" fill="#1a1a1a"/><rect x="0" y="8" width="5" height="1" fill="#1a1a1a"/><rect x="5" y="8" width="8" height="1" fill="#f4a73a"/><rect x="13" y="8" width="1" height="1" fill="#1a1a1a"/><rect x="0" y="9" width="1" height="1" fill="#e84c4c"/><rect x="1" y="9" width="2" height="1" fill="#1a1a1a"/><rect x="3" y="9" width="1" height="1" fill="#5a5a5a"/><rect x="4" y="9" width="1" height="1" fill="#1a1a1a"/><rect x="5" y="9" width="2" height="1" fill="#f4a73a"/><rect x="7" y="9" width="5" height="1" fill="#a86b14"/><rect x="12" y="9" width="1" height="1" fill="#f4a73a"/><rect x="13" y="9" width="1" height="1" fill="#1a1a1a"/><rect x="0" y="10" width="1" height="1" fill="#e84c4c"/><rect x="1" y="10" width="2" height="1" fill="#1a1a1a"/><rect x="3" y="10" width="1" height="1" fill="#5a5a5a"/><rect x="4" y="10" width="1" height="1" fill="#1a1a1a"/><rect x="5" y="10" width="8" height="1" fill="#f4a73a"/><rect x="13" y="10" width="1" height="1" fill="#1a1a1a"/><rect x="0" y="11" width="3" height="1" fill="#1a1a1a"/><rect x="3" y="11" width="1" height="1" fill="#5a5a5a"/><rect x="4" y="11" width="1" height="1" fill="#1a1a1a"/><rect x="5" y="11" width="2" height="1" fill="#f4a73a"/><rect x="7" y="11" width="5" height="1" fill="#a86b14"/><rect x="12" y="11" width="1" height="1" fill="#f4a73a"/><rect x="13" y="11" width="1" height="1" fill="#1a1a1a"/><rect x="1" y="12" width="4" height="1" fill="#1a1a1a"/><rect x="5" y="12" width="8" height="1" fill="#a86b14"/><rect x="13" y="12" width="1" height="1" fill="#1a1a1a"/><rect x="10" y="5" width="1" height="1" fill="#3a3a3a"/><rect x="10" y="4" width="1" height="1" fill="#3a3a3a"/></g>
</svg>