<?xml version="1.0" encoding="UTF-8"?>
<svg xmlns="http://www.w3.org/2000/svg" width="192" height="144" viewBox="0 0 24 18" shape-rendering="crispEdges">
  <title>Dino · Raptor Run</title>
  <g id="wheels" data-part="wheels"><rect x="4" y="12" width="3" height="1" fill="#1a1a1a"/><rect x="15" y="12" width="3" height="1" fill="#1a1a1a"/><rect x="4" y="14" width="3" height="1" fill="#1a1a1a"/><rect x="15" y="14" width="3" height="1" fill="#1a1a1a"/><rect x="4" y="13" width="1" height="1" fill="#1a1a1a"/><rect x="5" y="13" width="1" height="1" fill="#6a8a3a"/><rect x="6" y="13" width="1" height="1" fill="#1a1a1a"/><rect x="15" y="13" width="1" height="1" fill="#1a1a1a"/><rect x="16" y="13" width="1" height="1" fill="#6a8a3a"/><rect x="17" y="13" width="1" height="1" fill="#1a1a1a"/><rect x="6" y="15" width="1" height="1" fill="#1a1a1a"/><rect x="7" y="15" width="1" height="1" fill="#6a8a3a"/><rect x="8" y="15" width="1" height="1" fill="#1a1a1a"/><rect x="17" y="15" width="1" height="1" fill="#1a1a1a"/><rect x="18" y="15" width="1" height="1" fill="#6a8a3a"/><rect x="19" y="15" width="1" height="1" fill="#1a1a1a"/><rect x="5" y="16" width="1" height="1" fill="#e8e0c8"/><rect x="7" y="16" width="1" height="1" fill="#1a1a1a"/><rect x="16" y="16" width="1" height="1" fill="#e8e0c8"/><rect x="18" y="16" width="1" height="1" fill="#1a1a1a"/><rect x="6" y="17" width="3" height="1" fill="#e8e0c8"/><rect x="17" y="17" width="3" height="1" fill="#e8e0c8"/></g>
</svg>